<?xml version="1.0" encoding="UTF-8"?>
<svg width="181.578125px" height="24px" viewBox="0 0 181.578125 24" version="1.1" xmlns="http://www.w3.org/2000/svg" xmlns:xlink="http://www.w3.org/1999/xlink">
    <title>izvir-logo-2022</title>
    <g id="Page-1" stroke="none" stroke-width="1" fill="none" fill-rule="evenodd">
        <g id="izvir-logo-2022" fill="#FFFFFF" fill-rule="nonzero">
            <g id="IZVIR">
                <polygon id="Path" points="2.90625 0 2.90625 24 0 24 0 0"></polygon>
                <polygon id="Path" points="33.921875 24 33.921875 21.890625 46.859375 2.578125 33.78125 2.578125 33.78125 0 50.328125 0 50.328125 2.109375 37.390625 21.421875 50.46875 21.421875 50.46875 24"></polygon>
                <polygon id="Path" points="82.328125 0 89.453125 20.203125 89.734375 20.203125 96.859375 0 99.90625 0 91.09375 24 88.09375 24 79.28125 0"></polygon>
                <polygon id="Path" points="132.5625 0 132.5625 24 129.65625 24 129.65625 0"></polygon>
                <path d="M164.375,24 L164.375,0 L172.484375,0 C174.359375,0 175.898438,0.318359375 177.101562,0.955078125 C178.304688,1.59179688 179.195312,2.46484375 179.773438,3.57421875 C180.351562,4.68359375 180.640625,5.9453125 180.640625,7.359375 C180.640625,8.7734375 180.351562,10.0273438 179.773438,11.1210938 C179.195312,12.2148438 178.308594,13.0722656 177.113281,13.6933594 C175.917969,14.3144531 174.390625,14.625 172.53125,14.625 L165.96875,14.625 L165.96875,12 L172.4375,12 C173.71875,12 174.751953,11.8125 175.537109,11.4375 C176.322266,11.0625 176.892578,10.5292969 177.248047,9.83789062 C177.603516,9.14648438 177.78125,8.3203125 177.78125,7.359375 C177.78125,6.3984375 177.601562,5.55859375 177.242188,4.83984375 C176.882812,4.12109375 176.308594,3.56445312 175.519531,3.16992188 C174.730469,2.77539062 173.6875,2.578125 172.390625,2.578125 L167.28125,2.578125 L167.28125,24 L164.375,24 Z M175.671875,13.21875 L181.578125,24 L178.203125,24 L172.390625,13.21875 L175.671875,13.21875 Z" id="Shape"></path>
            </g>
        </g>
    </g>
</svg>